<svg id="Capa_1" enable-background="new 0 0 497.007 497.007" height="512" viewBox="0 0 497.007 497.007" width="512" xmlns="http://www.w3.org/2000/svg"><g><path d="m137.086 189.339h222.836l-100.224 282.519c-5.188 15.142-12.546 28.928-23.82 21.357-3.758-2.524-6.839-6.309-8.569-11.357l-9.627-28.098 8-5.838-13.139-9.16-12.236-35.712 7.431-7.499-12.57-7.502-32.004-93.407z" fill="#ffe287"/><path d="m359.923 189.34-38.737 142.237-51.493 150.283c-5.2 15.2-22.67 18.96-33.94 11.28 3.7-2.53 6.74-6.28 8.45-11.28l100.23-292.52z" fill="#ffd36f"/><path d="m357.334 213.12c9.11 9.27 14.47 22.22 13.66 36.41-.962 16.724-10.642 31.236-24.525 39.026-1.583.888-2.575 2.548-2.575 4.363l8 30.341c0 9.544-5.643 15.311-15.153 15.497-3.801.074-7.336.87-10.239-1.204-4.593-3.281-7.608-8.737-7.608-14.751v-26.793c0-2.069-1.3-3.886-3.227-4.64-6.349-2.486-12.046-6.285-16.743-11.068-4.44-4.52-11.67-4.67-16.09-.13-8.71 8.93-20.87 14.48-34.33 14.48s-25.62-5.55-34.33-14.48c-4.42-4.54-11.65-4.39-16.09.13-9.23 9.39-22.29 15.01-36.64 14.29-24.28-1.2-44.04-20.8-45.43-45.06-.81-14.19 4.55-27.14 13.66-36.41 3.54-3.6 4.21-9.09 1.74-13.5-10.86-19.37-17.04-41.71-17.04-65.49 0-70.707 54.712-128.648 124.13-133.763 3.301-.243 6.636.633 10 .633 74.09 0 124.13 59.06 124.13 133.13 0 23.78-6.18 46.12-17.04 65.49-2.47 4.409-1.8 9.899 1.74 13.499z" fill="#fdb4ba"/><path d="m367.334 213.12c9.11 9.27 14.47 22.22 13.66 36.41-.96 16.72-10.64 31.24-24.53 39.03-1.58.88-2.57 2.54-2.57 4.36v30.34c0 9.54-7.64 17.31-17.15 17.5-3.8.07-7.34-1.13-10.24-3.21 4.48-3.18 7.39-8.4 7.39-14.29v-30.34c0-1.82.99-3.48 2.57-4.36 13.89-7.79 23.57-22.31 24.53-39.03.81-14.19-4.55-27.14-13.66-36.41-3.54-3.6-4.21-9.09-1.74-13.5 10.86-19.37 17.04-41.71 17.04-65.49 0-70.71-54.71-128.65-124.13-133.76 3.3-.25 6.64-.37 10-.37 74.09 0 134.13 60.06 134.13 134.13 0 23.78-6.18 46.12-17.04 65.49-2.47 4.41-1.801 9.9 1.74 13.5z" fill="#fe99a0"/><path d="m256.003 446.26c0 4.14-3.36 7.5-7.5 7.5h-30.82l-5.14-15h35.96c4.14 0 7.5 3.36 7.5 7.5z" fill="#ffd36f"/><path d="m256.003 395.55c0 4.14-3.36 7.5-7.5 7.5h-48.19l-5.14-15h53.33c4.14 0 7.5 3.35 7.5 7.5z" fill="#ffd36f"/><path d="m256.08 78.221c-1.92 0-3.839-.732-5.304-2.197l-10.882-10.882c-2.929-2.929-2.929-7.678.001-10.606 2.928-2.929 7.677-2.929 10.606 0l10.882 10.882c2.929 2.929 2.929 7.678-.001 10.606-1.464 1.464-3.383 2.197-5.302 2.197z" fill="#dbc1ee"/><path d="m297.319 125.128c-1.919 0-3.839-.732-5.304-2.197-2.929-2.929-2.929-7.678 0-10.606l10.883-10.883c2.93-2.929 7.678-2.929 10.608 0 2.929 2.929 2.929 7.678 0 10.606l-10.883 10.883c-1.465 1.465-3.385 2.197-5.304 2.197z" fill="#dbf4b2"/><path d="m253.945 135.345c-1.919 0-3.839-.732-5.304-2.197l-10.883-10.883c-2.929-2.929-2.929-7.678 0-10.606 2.93-2.929 7.678-2.929 10.607 0l10.883 10.883c2.929 2.929 2.929 7.678 0 10.606-1.464 1.465-3.384 2.197-5.303 2.197z" fill="#a6e7f0"/><path d="m188.805 114.245c-1.92 0-3.839-.732-5.304-2.197-2.929-2.929-2.929-7.678.001-10.606l10.883-10.882c2.929-2.93 7.678-2.929 10.607 0s2.929 7.678-.001 10.606l-10.883 10.882c-1.464 1.465-3.384 2.197-5.303 2.197z" fill="#ffe287"/></g></svg>